# Blender v2.77 (sub 0) OBJ File: ''
# www.blender.org
mtllib box2.mtl
o Cube3_Cube3_auv
v -0.262488 0.198901 -0.216105
v -0.262488 -0.101099 -0.216105
v -0.262488 -0.101099 0.596395
v -0.262488 0.198901 0.596395
v 0.737512 0.198901 0.596395
v 0.737512 0.198901 -0.216104
v 0.737512 -0.101099 0.596395
v 0.737512 -0.101099 -0.216104
vt 0.4500 0.9062
vt 0.3000 0.9062
vt 0.3000 0.5000
vt 0.4500 0.5000
vt 0.8125 0.0000
vt 0.8125 0.5000
vt 0.4062 0.5000
vt 0.4062 0.0000
vt 0.0000 0.5000
vt 0.1500 0.5000
vt 0.1500 1.0000
vt 0.0000 1.0000
vt 0.9625 0.5000
vt 0.8125 0.5000
vt 0.8125 0.0000
vt 0.9625 0.0000
vt 0.1500 0.5000
vt 0.3000 0.5000
vt 0.3000 0.9062
vt 0.1500 0.9062
vt 0.4062 0.0000
vt 0.4062 0.5000
vt 0.0000 0.5000
vt -0.0000 0.0000
vn -0.5774 0.5774 -0.5774
vn -0.5774 -0.5774 -0.5774
vn -0.5774 -0.5774 0.5774
vn -0.5774 0.5774 0.5774
vn 0.5774 0.5774 0.5774
vn 0.5774 0.5774 -0.5774
vn 0.5774 -0.5774 0.5774
vn 0.5774 -0.5774 -0.5774
usemtl Cube3_auv
s 1
f 1/1/1 2/2/2 3/3/3 4/4/4
f 4/5/4 5/6/5 6/7/6 1/8/1
f 4/9/4 3/10/3 7/11/7 5/12/5
f 6/13/6 8/14/8 2/15/2 1/16/1
f 5/17/5 7/18/7 8/19/8 6/20/6
f 2/21/2 8/22/8 7/23/7 3/24/3
