# Blender 4.1.1
# www.blender.org
mtllib 9.mtl
o Cube
v 1.750000 -0.200000 -1.249929
v -1.750000 -0.200000 1.250079
v -1.750000 -0.200000 -1.249890
v 1.750000 -0.200000 1.250045
v 1.750000 0.200000 1.250056
v -1.750000 0.200000 -1.250058
v 1.750000 0.200000 -1.250100
v -1.750000 0.200000 1.250028
v -1.750000 0.200000 -1.500000
v -2.000000 0.200000 -1.250000
v -1.814705 0.200000 -1.491481
v -1.875000 0.200000 -1.466506
v -1.926777 0.200000 -1.426777
v -1.966506 0.200000 -1.375000
v -1.991481 0.200000 -1.314705
v -2.000000 -0.200000 -1.250000
v -1.750000 -0.200000 -1.500000
v -1.991481 -0.200000 -1.314705
v -1.966506 -0.200000 -1.375000
v -1.926777 -0.200000 -1.426777
v -1.875000 -0.200000 -1.466506
v -1.814705 -0.200000 -1.491481
v 2.000000 0.200000 -1.250000
v 1.750000 0.200000 -1.500000
v 1.991481 0.200000 -1.314705
v 1.966506 0.200000 -1.375000
v 1.926777 0.200000 -1.426777
v 1.875000 0.200000 -1.466506
v 1.814705 0.200000 -1.491482
v 1.750000 -0.200000 -1.500000
v 2.000000 -0.200000 -1.250000
v 1.814705 -0.200000 -1.491482
v 1.875000 -0.200000 -1.466506
v 1.926777 -0.200000 -1.426777
v 1.966506 -0.200000 -1.375000
v 1.991481 -0.200000 -1.314705
v -2.000000 0.200000 1.250000
v -1.750000 0.200000 1.500000
v -1.991481 0.200000 1.314705
v -1.966506 0.200000 1.375000
v -1.926777 0.200000 1.426777
v -1.875000 0.200000 1.466506
v -1.814705 0.200000 1.491482
v -1.750000 -0.200000 1.500000
v -2.000000 -0.200000 1.250000
v -1.814705 -0.200000 1.491482
v -1.875000 -0.200000 1.466506
v -1.926777 -0.200000 1.426777
v -1.966506 -0.200000 1.375000
v -1.991481 -0.200000 1.314705
v 1.750000 0.200000 1.500000
v 2.000000 0.200000 1.250000
v 1.814705 0.200000 1.491481
v 1.875000 0.200000 1.466506
v 1.926777 0.200000 1.426777
v 1.966506 0.200000 1.375000
v 1.991481 0.200000 1.314705
v 2.000000 -0.200000 1.250000
v 1.750000 -0.200000 1.500000
v 1.991481 -0.200000 1.314705
v 1.966506 -0.200000 1.375000
v 1.926777 -0.200000 1.426777
v 1.875000 -0.200000 1.466506
v 1.814705 -0.200000 1.491481
v 1.750000 0.200000 1.250056
v -1.750000 0.200000 -1.250058
v 1.750000 0.200000 -1.250100
v -1.750000 0.200000 1.250028
v 1.750000 0.200000 -1.250100
v 1.750000 0.200000 -1.250100
v 1.750000 0.200000 -1.250100
v 1.750000 0.200000 -1.250100
v 1.750000 0.200000 -1.250100
v 1.750000 0.200000 -1.250100
v 1.750000 0.200000 -1.250100
v 1.750000 0.200000 -1.250100
v 1.750000 0.200000 -1.500000
v 1.750000 0.200000 -1.500000
v 1.750000 0.200000 -1.500000
v 1.750000 0.200000 1.500000
v 1.750000 0.200000 1.500000
v 1.750000 0.200000 1.500000
v 1.750000 0.200000 1.500000
v 1.750000 0.200000 1.250056
v 1.750000 0.200000 1.250056
v 1.750000 0.200000 1.250056
v 1.750000 0.200000 1.250056
v 1.750000 0.200000 1.250056
v 1.750000 0.200000 1.250056
v 1.750000 0.200000 1.250056
v 1.750000 0.200000 1.250056
v 1.750000 0.200000 1.250056
v -1.750000 0.200000 1.250028
v -1.750000 0.200000 1.250028
v -1.750000 0.200000 1.250028
v -1.750000 0.200000 1.250028
v -1.750000 0.200000 1.250028
v -1.750000 0.200000 1.250028
v -1.750000 0.200000 1.250028
v -1.750000 0.200000 1.250028
v -2.000000 0.200000 1.250000
v -2.000000 0.200000 1.250000
v -2.000000 0.200000 1.250000
v -1.750000 0.200000 1.500000
v -1.750000 0.200000 1.500000
v -1.750000 0.200000 1.500000
v -1.750000 0.200000 1.500000
v 2.000000 0.200000 -1.250000
v 2.000000 0.200000 -1.250000
v 2.000000 0.200000 -1.250000
v 2.000000 0.200000 -1.250000
v -1.750000 0.200000 -1.500000
v -1.750000 0.200000 -1.500000
v -1.750000 0.200000 -1.500000
v -1.750000 0.200000 -1.500000
v -1.750000 0.200000 -1.250058
v -1.750000 0.200000 -1.250058
v -1.750000 0.200000 -1.250058
v -1.750000 0.200000 -1.250058
v -1.750000 0.200000 -1.250058
v -1.750000 0.200000 -1.250058
v -1.750000 0.200000 -1.250058
v -2.000000 0.200000 -1.250000
v -2.000000 0.200000 -1.250000
v -2.000000 0.200000 -1.250000
v -2.000000 0.200000 -1.250000
v 2.000000 0.200000 1.250000
v 2.000000 0.200000 1.250000
v 2.000000 0.200000 1.250000
v -1.814705 0.200000 -1.491481
v -1.814705 0.200000 -1.491481
v -1.875000 0.200000 -1.466506
v -1.875000 0.200000 -1.466506
v -1.926777 0.200000 -1.426777
v -1.926777 0.200000 -1.426777
v -1.966506 0.200000 -1.375000
v -1.966506 0.200000 -1.375000
v -1.991481 0.200000 -1.314705
v -1.991481 0.200000 -1.314705
v -2.000000 -0.200000 -1.250000
v 2.000000 -0.200000 1.250000
v 1.991481 0.200000 1.314705
v 1.991481 0.200000 1.314705
v 1.991481 0.200000 1.314705
v 1.991481 -0.200000 1.314705
v 1.966506 -0.200000 1.375000
v 1.966506 -0.200000 1.375000
v 1.966506 0.200000 1.375000
v 1.966506 0.200000 1.375000
v 1.966506 0.200000 1.375000
v 1.926777 -0.200000 1.426777
v 1.926777 -0.200000 1.426777
v 1.926777 0.200000 1.426777
v 1.926777 0.200000 1.426777
v 1.926777 0.200000 1.426777
v 1.875000 -0.200000 1.466506
v 1.875000 -0.200000 1.466506
v 1.875000 0.200000 1.466506
v 1.875000 0.200000 1.466506
v 1.875000 0.200000 1.466506
v 1.814705 -0.200000 1.491481
v 1.814705 -0.200000 1.491481
v 1.814705 0.200000 1.491481
v 1.814705 0.200000 1.491481
v 1.814705 0.200000 1.491481
v 1.750000 -0.200000 1.500000
v 1.750000 -0.200000 1.500000
v 1.991481 0.200000 -1.314705
v 1.991481 0.200000 -1.314705
v 1.966506 0.200000 -1.375000
v 1.966506 0.200000 -1.375000
v 1.926777 0.200000 -1.426777
v 1.926777 0.200000 -1.426777
v 1.875000 0.200000 -1.466506
v 1.875000 0.200000 -1.466506
v 1.814705 0.200000 -1.491482
v 1.814705 0.200000 -1.491482
v 1.750000 -0.200000 -1.500000
v -1.991481 0.200000 1.314705
v -1.991481 0.200000 1.314705
v -1.966506 0.200000 1.375000
v -1.966506 0.200000 1.375000
v -1.966506 0.200000 1.375000
v -1.966506 -0.200000 1.375000
v -1.926777 0.200000 1.426777
v -1.926777 0.200000 1.426777
v -1.926777 0.200000 1.426777
v -1.926777 -0.200000 1.426777
v -1.926777 -0.200000 1.426777
v -1.875000 0.200000 1.466506
v -1.875000 0.200000 1.466506
v -1.875000 0.200000 1.466506
v -1.875000 -0.200000 1.466506
v -1.875000 -0.200000 1.466506
v -1.814705 0.200000 1.491482
v -1.814705 0.200000 1.491482
v -1.814705 0.200000 1.491482
v -1.814705 -0.200000 1.491482
v -1.814705 -0.200000 1.491482
v -1.750000 -0.200000 1.500000
v -1.750000 -0.200000 1.500000
v -1.750000 -0.200000 1.500000
v 1.750000 0.200000 1.250056
v -1.750000 0.200000 -1.250058
vn -0.0000 -1.0000 -0.0000
vn -0.0000 -0.0000 1.0000
vn -0.0000 1.0000 -0.0000
vn 1.0000 -0.0000 -0.0000
vn -0.0000 -0.0000 -1.0000
vn -0.1305 -0.0000 -0.9914
vn -0.3827 -0.0000 -0.9239
vn -0.6088 -0.0000 -0.7934
vn -0.7934 -0.0000 -0.6088
vn -0.9239 -0.0000 -0.3827
vn -0.9914 -0.0000 -0.1305
vn 0.9914 -0.0000 0.1305
vn 0.9239 -0.0000 0.3827
vn 0.7934 -0.0000 0.6088
vn 0.6088 -0.0000 0.7934
vn 0.3827 -0.0000 0.9239
vn 0.1305 -0.0000 0.9914
vn 0.9914 -0.0000 -0.1305
vn 0.9239 -0.0000 -0.3827
vn 0.7934 -0.0000 -0.6088
vn 0.6088 -0.0000 -0.7934
vn 0.3827 -0.0000 -0.9239
vn 0.1305 -0.0000 -0.9914
vn -0.9914 -0.0000 0.1305
vn -0.9239 -0.0000 0.3827
vn -0.7934 -0.0000 0.6088
vn -0.6088 -0.0000 0.7934
vn -0.3827 -0.0000 0.9239
vn -0.1305 -0.0000 0.9914
vn -1.0000 -0.0000 -0.0000
vt 0.145827 0.515625
vt 0.125000 0.734375
vt 0.125000 0.515625
vt 0.625000 0.015625
vt 0.375000 0.234375
vt 0.375000 0.015625
vt 0.854171 0.734375
vt 0.645828 0.515625
vt 0.854169 0.515625
vt 0.625000 0.770833
vt 0.375000 0.979167
vt 0.375000 0.770833
vt 0.625000 0.515625
vt 0.645825 0.734375
vt 0.625000 0.734375
vt 0.375000 0.734375
vt 0.375000 0.515625
vt 0.375000 0.511581
vt 0.625000 0.511581
vt 0.375000 0.507812
vt 0.625000 0.507812
vt 0.375000 0.500000
vt 0.625000 0.500000
vt 0.375000 0.489583
vt 0.625000 0.489583
vt 0.375000 0.484559
vt 0.625000 0.484559
vt 0.375000 0.479167
vt 0.625000 0.479167
vt 0.625000 0.979167
vt 0.625000 0.984559
vt 0.375000 0.984559
vt 0.625000 0.989583
vt 0.375000 0.989583
vt 0.625000 1.000000
vt 0.375000 1.000000
vt 0.375000 0.000000
vt 0.625000 0.000000
vt 0.625000 0.007812
vt 0.375000 0.007812
vt 0.625000 0.011581
vt 0.375000 0.011581
vt 0.375000 0.765441
vt 0.625000 0.765441
vt 0.375000 0.760417
vt 0.625000 0.760417
vt 0.375000 0.750000
vt 0.625000 0.750000
vt 0.375000 0.742188
vt 0.625000 0.742188
vt 0.375000 0.738419
vt 0.625000 0.738419
vt 0.625000 0.270833
vt 0.375000 0.270833
vt 0.375000 0.265441
vt 0.625000 0.265441
vt 0.375000 0.260417
vt 0.625000 0.260417
vt 0.375000 0.250000
vt 0.625000 0.250000
vt 0.375000 0.242188
vt 0.625000 0.242188
vt 0.375000 0.238419
vt 0.625000 0.238419
vt 0.625000 0.234375
vt 0.627791 0.742187
vt 0.625710 0.738419
vt 0.645833 0.750000
vt 0.854167 0.750000
vt 0.864583 0.747907
vt 0.859559 0.749468
vt 0.875000 0.515625
vt 0.875000 0.734375
vt 0.872209 0.507812
vt 0.874290 0.511581
vt 0.645833 0.500000
vt 0.854167 0.500000
vt 0.635417 0.502093
vt 0.640441 0.500532
vt 0.127791 0.742187
vt 0.125710 0.738419
vt 0.145830 0.734375
vt 0.145833 0.750000
vt 0.354161 0.734375
vt 0.354167 0.750000
vt 0.364583 0.747907
vt 0.359559 0.749468
vt 0.372209 0.507812
vt 0.374290 0.511581
vt 0.354158 0.515625
vt 0.145833 0.500000
vt 0.354167 0.500000
vt 0.135417 0.502093
vt 0.140441 0.500532
vt 0.640441 0.749468
vt 0.635417 0.747907
vt 0.631102 0.745423
vt 0.874290 0.738419
vt 0.872209 0.742188
vt 0.868898 0.745424
vt 0.859559 0.500532
vt 0.864583 0.502093
vt 0.868898 0.504576
vt 0.625710 0.511581
vt 0.627791 0.507812
vt 0.631102 0.504576
vt 0.140441 0.749468
vt 0.135417 0.747907
vt 0.131102 0.745423
vt 0.374290 0.738419
vt 0.372209 0.742188
vt 0.368898 0.745424
vt 0.359559 0.500532
vt 0.364583 0.502093
vt 0.368898 0.504576
vt 0.125710 0.511581
vt 0.127791 0.507812
vt 0.131102 0.504576
s 0
usemtl Material
f 2/1/1 59/2/1 201/3/1
f 82/4/2 202/5/2 167/6/2
f 65/7/3 204/8/3 68/9/3
f 109/10/4 141/11/4 31/12/4
f 114/13/3 69/14/3 77/15/3
f 113/13/5 178/16/5 17/17/5
f 113/13/6 17/17/6 22/18/6 130/19/6
f 130/19/7 22/18/7 21/20/7 132/21/7
f 132/21/8 21/20/8 20/22/8 134/23/8
f 134/23/9 20/22/9 19/24/9 136/25/9
f 136/25/10 19/24/10 18/26/10 138/27/10
f 138/27/11 18/26/11 140/28/11 124/29/11
f 141/11/12 128/30/12 142/31/12 145/32/12
f 60/32/13 143/31/13 148/33/13 146/34/13
f 147/34/14 149/33/14 153/35/14 151/36/14
f 152/37/15 154/38/15 158/39/15 156/40/15
f 157/40/16 159/39/16 163/41/16 161/42/16
f 162/42/17 164/41/17 81/4/17 166/6/17
f 109/10/18 31/12/18 36/43/18 168/44/18
f 168/44/19 36/43/19 35/45/19 170/46/19
f 170/46/20 35/45/20 34/47/20 172/48/20
f 172/48/21 34/47/21 33/49/21 174/50/21
f 174/50/22 33/49/22 32/51/22 176/52/22
f 176/52/23 32/51/23 178/16/23 78/15/23
f 102/53/24 45/54/24 50/55/24 179/56/24
f 179/56/25 50/55/25 184/57/25 181/58/25
f 182/58/26 49/57/26 188/59/26 185/60/26
f 186/60/27 189/59/27 193/61/27 190/62/27
f 191/62/28 194/61/28 198/63/28 195/64/28
f 196/64/29 199/63/29 200/5/29 105/65/29
f 102/53/30 140/28/30 45/54/30
f 175/66/3 177/67/3 73/14/3
f 110/68/3 87/7/3 127/69/3
f 150/70/3 144/71/3 88/7/3
f 84/7/3 106/72/3 80/73/3
f 192/74/3 197/75/3 97/9/3
f 93/9/3 125/76/3 101/77/3
f 137/78/3 139/79/3 120/8/3
f 63/80/1 64/81/1 4/82/1
f 141/83/1 1/84/1 31/85/1
f 35/86/1 36/87/1 1/84/1
f 1/84/1 17/17/1 178/16/1
f 21/88/1 22/89/1 3/90/1
f 3/90/1 45/91/1 140/92/1
f 184/93/1 50/94/1 2/1/1
f 3/90/1 4/82/1 2/1/1
f 203/7/3 67/14/3 66/8/3
f 3/90/1 1/84/1 4/82/1
f 29/67/3 79/15/3 76/14/3
f 70/14/3 108/68/3 169/95/3
f 25/95/3 171/96/3 74/14/3
f 26/96/3 173/97/3 75/14/3
f 27/97/3 28/66/3 7/14/3
f 57/71/3 129/69/3 92/7/3
f 89/7/3 83/73/3 165/98/3
f 53/98/3 160/99/3 90/7/3
f 54/99/3 155/100/3 91/7/3
f 55/100/3 56/70/3 5/7/3
f 43/75/3 104/72/3 94/9/3
f 98/9/3 103/77/3 180/101/3
f 39/101/3 183/102/3 99/9/3
f 40/102/3 187/103/3 100/9/3
f 41/103/3 42/74/3 8/9/3
f 15/79/3 123/76/3 119/8/3
f 116/8/3 112/13/3 131/104/3
f 11/104/3 133/105/3 121/8/3
f 12/105/3 135/106/3 122/8/3
f 13/106/3 14/78/3 6/8/3
f 64/81/1 59/2/1 4/82/1
f 4/82/1 141/83/1 145/107/1
f 145/107/1 61/108/1 4/82/1
f 61/108/1 62/109/1 4/82/1
f 62/109/1 63/80/1 4/82/1
f 36/87/1 31/85/1 1/84/1
f 1/84/1 178/16/1 32/110/1
f 32/110/1 33/111/1 1/84/1
f 33/111/1 34/112/1 1/84/1
f 34/112/1 35/86/1 1/84/1
f 22/89/1 17/17/1 3/90/1
f 3/90/1 140/92/1 18/113/1
f 18/113/1 19/114/1 3/90/1
f 19/114/1 20/115/1 3/90/1
f 20/115/1 21/88/1 3/90/1
f 50/94/1 45/91/1 2/1/1
f 2/1/1 201/3/1 46/116/1
f 46/116/1 47/117/1 2/1/1
f 47/117/1 48/118/1 2/1/1
f 48/118/1 184/93/1 2/1/1
f 2/1/1 4/82/1 59/2/1
f 51/4/2 107/65/2 44/5/2
f 23/10/4 52/30/4 58/11/4
f 115/13/3 118/8/3 72/14/3
f 9/13/5 24/15/5 30/16/5
f 37/53/30 10/29/30 16/28/30
f 111/68/3 71/14/3 85/7/3
f 86/7/3 96/9/3 38/72/3
f 95/9/3 117/8/3 126/76/3
f 141/83/1 4/82/1 1/84/1
f 1/84/1 3/90/1 17/17/1
f 3/90/1 2/1/1 45/91/1